<?xml version="1.0" encoding="utf-8"?>
<!DOCTYPE svg PUBLIC "-//W3C//DTD SVG 20010904//EN" "http://www.w3.org/TR/2001/REC-SVG-20010904/DTD/svg10.dtd">
<svg version="1.0" xmlns="http://www.w3.org/2000/svg" width="497pt" height="798pt" viewBox="0 0 497 798" preserveAspectRatio="xMidYMid meet">
<g fill="#FEFEFEFE">
<path d="M 46.50 795.90 C 27.47 793.12 12.30 784.18 5.35 771.65 L 2.50 766.50 L 2.50 524.50 L 2.50 282.50 L 4.95 277.50 C 10.19 266.82 23.42 257.76 39.28 254.00 C 47.71 251.99 49.97 251.97 251.65 252.24 L 455.50 252.50 L 462.50 254.86 C 466.35 256.16 471.73 258.35 474.45 259.73 C 481.47 263.28 490.34 272.10 493.15 278.31 L 495.50 283.50 L 495.50 524.50 L 495.50 765.50 L 493.04 770.50 C 487.83 781.13 474.79 790.38 458.98 794.68 C 452.90 796.33 440.10 796.45 252.50 796.61 C 142.24 796.70 49.81 796.38 46.50 795.90ZM 154.61 691.00 C 155.40 691.00 159.06 687.84 162.73 683.98 C 171.55 674.70 178.74 671.00 187.91 671.01 C 196.82 671.02 203.05 674.06 212.45 682.96 C 219.00 689.15 220.35 690.00 223.70 689.99 C 228.63 689.98 236.17 686.42 248.14 678.46 C 260.81 670.02 266.67 664.30 267.57 659.45 C 267.96 657.39 267.70 651.99 266.99 647.44 C 263.46 624.77 271.46 611.40 292.71 604.46 C 300.62 601.88 304.19 599.43 306.51 594.97 C 308.89 590.40 310.32 576.28 309.68 563.65 C 308.75 545.02 305.22 539.43 292.00 535.65 C 273.13 530.26 264.05 513.70 267.96 491.82 C 269.81 481.47 268.10 477.66 257.95 469.64 C 242.83 457.69 225.47 448.91 219.77 450.34 C 218.29 450.71 214.02 453.73 210.29 457.04 C 200.73 465.53 195.37 468.00 186.55 467.99 C 177.43 467.98 171.30 465.19 162.61 457.10 C 159.04 453.78 154.91 450.77 153.43 450.39 C 149.48 449.40 141.80 452.17 131.27 458.39 C 109.02 471.54 103.63 478.57 107.04 490.01 C 107.62 491.93 108.10 496.89 108.12 501.03 C 108.20 518.00 98.58 530.34 81.97 534.58 C 67.47 538.27 65.32 541.25 62.96 560.83 C 61.60 572.08 63.04 588.52 65.86 593.98 C 68.28 598.67 72.63 601.47 79.69 602.87 C 91.01 605.11 100.25 612.62 105.17 623.58 C 108.13 630.15 108.30 642.14 105.57 650.17 C 102.87 658.10 104.18 662.14 111.67 668.98 C 123.76 680.03 147.13 693.11 151.83 691.47 C 152.56 691.21 153.81 691.00 154.61 691.00ZM 173.84 612.14 C 166.46 609.70 162.52 607.19 156.90 601.31 C 147.61 591.59 144.56 582.97 145.17 568.11 C 145.51 559.90 146.02 557.52 148.72 551.78 C 162.48 522.44 201.31 518.64 220.05 544.81 C 225.91 553.00 228.33 561.86 227.83 573.31 C 227.49 581.01 226.92 583.59 224.28 589.22 C 219.94 598.50 213.38 605.21 204.25 609.72 C 197.71 612.95 195.78 613.43 188.16 613.70 C 181.73 613.93 178.04 613.53 173.84 612.14ZM 332.64 494.95 C 343.58 484.61 352.85 484.29 363.25 493.88 C 369.99 500.09 371.79 500.45 378.81 496.94 C 386.59 493.05 397.11 485.15 398.71 482.00 C 399.60 480.23 399.79 476.86 399.35 470.42 C 398.95 464.60 399.14 460.10 399.88 457.86 C 401.62 452.59 407.61 447.37 414.93 444.75 C 424.50 441.33 426.95 436.78 426.95 422.50 C 426.95 408.59 424.42 403.62 415.73 400.49 C 408.36 397.84 404.51 394.87 401.76 389.73 C 399.78 386.01 399.53 384.22 399.71 375.01 C 399.85 367.59 399.52 363.91 398.56 362.46 C 396.74 359.67 383.32 350.50 376.53 347.38 C 370.04 344.41 368.35 344.73 362.60 349.98 C 357.13 354.99 352.94 357.00 348.02 357.00 C 342.61 357.00 338.46 355.16 332.76 350.22 C 326.80 345.06 325.04 344.54 320.32 346.51 C 314.46 348.96 302.85 356.48 299.50 359.99 C 296.51 363.14 296.50 363.17 296.81 373.63 C 297.08 382.79 296.84 384.70 294.91 388.68 C 292.43 393.80 286.77 397.96 279.53 399.99 C 273.27 401.74 270.35 405.01 268.93 411.83 C 267.42 419.12 268.21 433.57 270.35 437.71 C 271.59 440.11 273.33 441.33 277.74 442.90 C 294.07 448.74 298.44 455.65 295.96 471.69 C 294.83 479.00 294.87 480.16 296.35 482.41 C 300.10 488.13 318.95 499.93 324.40 499.98 C 326.54 499.99 328.72 498.66 332.64 494.95ZM 344.00 449.97 C 330.71 448.25 321.07 436.86 321.02 422.83 C 320.97 406.17 334.02 393.82 350.14 395.28 C 372.06 397.27 382.19 424.44 367.23 441.09 C 364.76 443.84 361.44 446.75 359.86 447.57 C 355.80 449.67 349.28 450.66 344.00 449.97Z"/></g>
<g fill="#FEFEFEFE">
<path d="M 48.39 220.01 C 26.57 216.77 8.19 199.75 2.52 177.54 C 0.27 168.73 0.29 53.65 2.54 44.10 C 7.35 23.70 24.94 6.21 44.80 2.10 C 48.54 1.32 108.52 1.00 248.84 1.00 C 423.91 1.00 448.28 1.18 453.45 2.53 C 472.45 7.48 488.30 23.44 493.74 43.11 C 495.33 48.90 495.50 55.34 495.50 111.50 L 495.50 173.50 L 492.76 181.58 C 486.66 199.57 473.67 212.32 455.00 218.64 C 449.72 220.43 441.75 220.51 251.50 220.63 C 142.60 220.71 51.20 220.43 48.39 220.01ZM 63.78 133.45 C 78.21 127.42 81.30 109.50 69.67 99.28 C 60.11 90.89 46.33 93.81 40.48 105.45 C 37.05 112.29 37.19 118.06 40.97 124.64 C 43.27 128.65 45.06 130.35 49.15 132.39 C 55.18 135.39 58.55 135.63 63.78 133.45ZM 119.22 133.96 C 127.28 131.72 133.37 123.34 133.37 114.50 C 133.37 101.64 120.68 91.38 109.27 95.04 C 93.44 100.11 89.48 120.64 102.43 130.51 C 107.99 134.75 112.79 135.74 119.22 133.96ZM 427.00 114.50 L 427.00 94.00 L 307.00 94.00 L 187.00 94.00 L 187.00 114.50 L 187.00 135.00 L 307.00 135.00 L 427.00 135.00 L 427.00 114.50Z"/></g>
</svg>
